PathFileType	4	(X/Y/Z)	 s02c0401.trc
DataRate	CameraRate	NumFrames	NumMarkers	Units	OrigDataRate	OrigDataStartFrame	OrigNumFrames
200	200	4	50	mm	200	1501	2000
Frame#	Time	racr			lacr			c7			jug			rlel			rdr			llel			ldr			s2			lic			ric			lasi			rasi			rpsi			lpsi			rgt			lgt			rth1			rth2			rth3			rth4			rlfc			rmfc			rsh1			rsh2			rsh3			rsh4			rlmal			rmmal			rtoe			rmt5			rmt1			lth1			lth2			lth4			lth3			llfc			lmfc			lsh1			lsh2			lsh3			lsh4			llmal			lmmal			lcal			ltoe			lmt5			SBIKE			LBIKE			RBIKE			
		X1	Y1	Z1	X2	Y2	Z2	X3	Y3	Z3	X4	Y4	Z4	X5	Y5	Z5	X6	Y6	Z6	X7	Y7	Z7	X8	Y8	Z8	X9	Y9	Z9	X10	Y10	Z10	X11	Y11	Z11	X12	Y12	Z12	X13	Y13	Z13	X14	Y14	Z14	X15	Y15	Z15	X16	Y16	Z16	X17	Y17	Z17	X18	Y18	Z18	X19	Y19	Z19	X20	Y20	Z20	X21	Y21	Z21	X22	Y22	Z22	X23	Y23	Z23	X24	Y24	Z24	X25	Y25	Z25	X26	Y26	Z26	X27	Y27	Z27	X28	Y28	Z28	X29	Y29	Z29	X30	Y30	Z30	X31	Y31	Z31	X32	Y32	Z32	X33	Y33	Z33	X34	Y34	Z34	X35	Y35	Z35	X36	Y36	Z36	X37	Y37	Z37	X38	Y38	Z38	X39	Y39	Z39	X40	Y40	Z40	X41	Y41	Z41	X42	Y42	Z42	X43	Y43	Z43	X44	Y44	Z44	X45	Y45	Z45	X46	Y46	Z46	X47	Y47	Z47	X48	Y48	Z48	X49	Y49	Z49	X50	Y50	Z50	
1501	7.5050	815.020706	1167.752076	-156.988562	793.636033	1215.153450	-521.470805	815.641768	1251.469833	-343.904952	735.093985	1136.037627	-360.391955	615.569202	1021.347798	-38.193190	713.555257	880.347684	-122.130069	602.593503	1029.873046	-647.187558	705.988214	886.091890	-525.844382	265.551359	1165.860469	-285.911700	378.223154	1182.383370	-443.142118	415.568527	1128.168695	-158.077019	417.436451	1141.048894	-426.771000	450.758731	1089.862056	-194.482354	308.437464	1195.540980	-231.072641	300.321968	1214.396134	-310.771951	362.538938	1036.228384	-128.616883	336.282316	1100.585979	-484.483864	392.384252	954.343928	-126.520505	417.802769	869.740154	-133.022194	405.760168	787.041837	-113.276440	446.601814	870.397971	-157.450591	384.567082	652.623303	-148.924335	363.719230	636.056426	-250.374114	350.767888	552.776374	-121.468071	344.647477	464.715261	-135.582639	299.641056	391.452900	-127.519192	355.858118	462.547688	-173.151777	256.074168	281.600142	-131.966619	262.721309	297.441236	-209.921916	384.245921	96.006638	-195.517400	296.148852	150.727085	-124.404691	319.004964	155.002497	-232.801087	461.593450	1031.163412	-489.193237	542.920286	999.283069	-482.361564	559.662714	1024.331272	-460.674455	597.203377	929.068616	-484.016699	679.198145	858.450706	-454.341558	658.174169	832.207599	-350.890863	607.560636	786.340779	-478.033251	547.661620	725.090055	-465.262577	462.004466	697.615184	-476.463733	557.782484	709.260161	-427.810348	356.067073	649.869795	-473.164386	366.234710	634.883689	-393.299622	278.410874	664.463732	-434.649060	433.607264	423.496330	-434.035444	356.185976	496.965208	-495.036040	-161.887850	861.183704	-307.831775	37.496742	87.197000	-514.162965	34.077148	83.231192	-114.013815	
1502	7.5100	815.677507	1168.514218	-159.532821	793.454984	1212.208099	-523.831337	815.579494	1250.555425	-346.896653	735.600453	1134.578122	-362.294710	617.193732	1022.321959	-38.801435	713.806863	880.459605	-122.247445	601.587143	1028.192937	-649.455586	705.688924	886.354845	-526.265895	265.919163	1167.812702	-284.862564	377.400186	1184.045420	-442.727766	416.525466	1130.000042	-157.520170	416.933611	1142.726457	-426.557123	451.057695	1091.943321	-193.755239	308.963352	1197.836604	-229.792895	300.626305	1216.632731	-309.880053	362.298226	1037.927325	-129.360039	335.606271	1103.115130	-483.567034	391.343609	956.279101	-125.835560	416.039843	871.338680	-131.657168	402.895313	788.707673	-111.903071	444.861488	871.637889	-156.082769	380.873633	654.370035	-147.466044	360.122001	639.034338	-249.815442	345.884430	555.053727	-120.590215	338.399618	467.171369	-134.853156	293.675115	394.016595	-126.689651	350.594630	464.663204	-172.343879	248.991722	284.351758	-131.275547	256.011947	300.301032	-209.137144	373.149060	95.925192	-195.443630	286.264163	152.421119	-124.330539	309.011443	156.139000	-232.602701	460.616044	1033.877866	-489.149456	541.348548	1002.728388	-483.947831	559.089863	1027.739906	-462.066069	596.350595	932.685554	-484.704467	676.104251	864.493450	-458.566095	660.850694	837.216086	-352.748579	611.058234	790.429962	-479.385088	552.752513	727.647173	-466.365985	467.668200	698.210802	-476.743045	563.568207	712.120832	-429.643768	361.492569	647.739617	-472.585924	372.603480	633.045588	-393.600164	283.171141	660.896161	-433.523517	445.328038	424.429764	-434.595401	365.678078	495.850997	-495.118527	-161.940552	861.241948	-308.341229	37.494601	87.168296	-514.177275	34.081151	83.217404	-114.000480	
1503	7.5150	816.210897	1169.391040	-161.775652	793.345971	1209.056681	-526.097754	815.535346	1249.347856	-349.921606	735.952612	1132.923496	-363.941667	618.714306	1023.556826	-39.540718	714.046860	880.590711	-122.231370	600.564554	1026.455993	-651.611900	705.573848	886.481252	-526.526149	266.842721	1169.904168	-283.740674	376.735347	1185.903297	-442.336748	417.096081	1132.253856	-157.085094	416.641755	1144.494497	-426.293253	451.025747	1094.269202	-193.086186	309.486167	1200.646336	-228.863784	301.004847	1219.035278	-309.151092	362.219501	1040.331540	-128.466046	334.870908	1105.533920	-482.555578	390.338918	958.578503	-125.042417	414.570192	873.412391	-130.249115	400.471739	790.893068	-110.716178	443.562523	873.314234	-154.587890	377.875208	656.193118	-146.673505	358.209036	640.866498	-249.178895	341.951466	557.470244	-119.984238	333.380729	469.662105	-134.255093	287.677393	397.189203	-126.341420	345.832379	467.121933	-171.630921	241.648096	287.764109	-130.918543	249.343340	303.731327	-208.726818	362.234786	97.038484	-195.121285	276.344941	154.918608	-124.284558	297.988678	157.281555	-233.721858	459.274379	1036.404822	-489.151281	540.073678	1005.645952	-484.953315	558.088579	1030.803552	-463.485542	595.537159	935.655655	-486.102043	670.440801	870.204491	-464.110425	663.181791	841.168356	-354.802713	613.540832	793.653751	-481.145244	556.790362	730.144408	-468.395881	472.192128	698.451108	-477.362208	568.175411	714.397252	-431.133581	366.119194	645.207094	-472.361870	378.330510	630.806949	-393.540938	287.312850	656.275619	-432.807637	456.980812	425.161838	-435.176012	374.934367	494.161756	-495.493473	-161.943233	861.227450	-308.391076	37.494612	87.096459	-514.205853	34.075858	83.220020	-114.019634	
1504	7.5200	816.892730	1169.953230	-164.263286	793.357009	1205.734182	-528.188160	815.513016	1247.995099	-352.774590	736.596809	1130.981545	-365.611703	620.074018	1024.915034	-40.297895	714.282900	880.738825	-122.047475	599.534704	1024.690059	-653.672947	705.005729	886.648925	-527.042088	266.954541	1172.728162	-282.678928	376.185064	1187.484620	-441.818168	417.469208	1135.001576	-156.501624	416.473825	1146.241202	-426.083360	450.801078	1097.305450	-191.769413	309.932073	1203.721268	-228.245107	301.781642	1221.780918	-308.362274	362.013240	1043.303875	-126.964915	334.076340	1107.851315	-481.415737	389.449653	961.081793	-124.101313	413.369622	875.776261	-129.008050	398.649702	793.322794	-109.547501	442.519605	875.503409	-153.318336	376.095423	658.291678	-145.760580	356.792134	643.246577	-248.236313	338.918823	560.092105	-119.616105	329.008651	472.358186	-133.898529	282.249319	400.592319	-126.156800	341.597666	469.611548	-171.332460	234.129279	291.886759	-130.752580	242.551637	307.755702	-208.600126	351.378242	98.814280	-194.971260	266.443409	158.366712	-124.372863	288.201907	160.013269	-233.720720	457.744851	1038.800315	-489.337074	538.655992	1008.158966	-486.071801	556.869312	1033.441620	-464.963112	594.104915	938.413085	-487.917340	670.137353	873.640897	-466.652171	665.090340	844.031236	-357.098036	614.796045	795.965735	-483.145866	559.527680	731.119234	-470.027803	475.346278	698.037639	-478.191714	571.569430	715.542416	-432.979401	369.849339	641.590433	-471.806981	383.253267	627.814359	-393.561122	290.447746	650.557134	-432.070036	468.414031	425.645249	-435.446950	383.602536	491.722059	-495.741288	-162.107170	861.045810	-309.005448	37.475831	87.027779	-514.232537	34.046956	83.233441	-114.027853	
